<svg class="svg-icon" style="width: 1em; height: 1em;vertical-align: middle;fill: currentColor;overflow: hidden;" viewBox="0 0 1024 1024" version="1.1" xmlns="http://www.w3.org/2000/svg"><path d="M981.333333 234.666667v618.666666c0 93.866667-76.8 170.666667-170.666666 170.666667H499.2c-46.08 0-89.6-18.346667-121.6-50.773333L42.666667 632.746667s53.76-52.48 55.466666-53.333334c9.386667-8.106667 20.906667-12.373333 33.706667-12.373333 9.386667 0 17.92 2.56 25.6 6.826667 1.706667 0.426667 183.893333 104.96 183.893333 104.96V170.666667c0-35.413333 28.586667-64 64-64s64 28.586667 64 64v298.666666h42.666667V64c0-35.413333 28.586667-64 64-64s64 28.586667 64 64v405.333333h42.666667V106.666667c0-35.413333 28.586667-64 64-64s64 28.586667 64 64v362.666666h42.666666V234.666667c0-35.413333 28.586667-64 64-64s64 28.586667 64 64z"  /></svg>